<?xml version="1.0" encoding="UTF-8"?>
<svg version="1.1" xmlns="http://www.w3.org/2000/svg" width="317" height="305">
<path d="M0 0 C104.61 0 209.22 0 317 0 C317 100.65 317 201.3 317 305 C212.39 305 107.78 305 0 305 C0 204.35 0 103.7 0 0 Z " fill="#DEF1F1" transform="translate(0,0)"/>
<path d="M0 0 C1.12801025 0.37439209 1.12801025 0.37439209 2.27880859 0.75634766 C10.78608454 3.72194333 18.56629488 7.98950341 26.375 12.4375 C26.375 13.4275 26.375 14.4175 26.375 15.4375 C24.28515625 16.9453125 24.28515625 16.9453125 21.4375 18.5625 C11.04264674 24.98985201 4.50433657 33.61157487 -2.40161133 43.52246094 C-9.47260831 53.49330971 -16.97264737 59.76068747 -29.15234375 62.12109375 C-32.30579471 62.6175654 -35.45533278 63.05992209 -38.625 63.4375 C-38.955 65.4175 -39.285 67.3975 -39.625 69.4375 C-71.635 69.4375 -103.645 69.4375 -136.625 69.4375 C-133.3567838 49.82820281 -115.97156362 30.05173307 -100.3046875 18.2890625 C-70.56522514 -2.25977884 -35.27105167 -11.81120951 0 0 Z " fill="#A9D2EC" transform="translate(190.625,46.5625)"/>
<path d="M0 0 C33 0 66 0 100 0 C98.87268648 6.7638811 98.87268648 6.7638811 97.28515625 9.62890625 C96.93396729 10.26489746 96.58277832 10.90088867 96.22094727 11.55615234 C95.83865967 12.21824707 95.45637207 12.8803418 95.0625 13.5625 C94.46296509 14.60978271 94.46296509 14.60978271 93.85131836 15.67822266 C87.37473275 26.7302878 79.45761198 36.33551054 70 45 C69.2678125 45.67417969 68.535625 46.34835938 67.78125 47.04296875 C44.348987 67.14496149 13.35291676 75.30881203 -17 73 C-33.19602347 70.79880827 -48.8003814 65.84733451 -62 56 C-60.85479227 52.5643768 -60.44224516 52.41995622 -57.4375 50.75 C-48.39784139 45.29088112 -42.4787567 38.00826821 -36.23925781 29.65771484 C-25.77654854 15.66208916 -16.76522182 9.96268879 0 6 C0 4.02 0 2.04 0 0 Z " fill="#A9D2EC" transform="translate(165,194)"/>
<path d="M0 0 C6.42993529 2.82014706 11.12814684 8.11645183 14.12890625 14.37890625 C15.63289943 22.40020322 14.81349473 28.77836846 10.21484375 35.5546875 C5.84254131 41.01507434 1.25796303 43.79169265 -5.74829102 44.69262695 C-8.3382334 44.85065649 -10.90158553 44.88664528 -13.49609375 44.87890625 C-14.37201172 44.90726563 -15.24792969 44.935625 -16.15039062 44.96484375 C-20.57484878 44.97826136 -22.63563293 44.90423233 -26.2109375 42.11328125 C-26.90316406 41.2109375 -27.59539062 40.30859375 -28.30859375 39.37890625 C-28.89382813 38.651875 -29.4790625 37.92484375 -30.08203125 37.17578125 C-30.61054688 36.5003125 -31.1390625 35.82484375 -31.68359375 35.12890625 C-34.06846907 32.34043664 -35.56506148 30.88458341 -39.24609375 30.37890625 C-40.25671875 30.37890625 -41.26734375 30.37890625 -42.30859375 30.37890625 C-42.27378906 31.13816406 -42.23898437 31.89742187 -42.203125 32.6796875 C-42.17605469 33.67355469 -42.14898437 34.66742188 -42.12109375 35.69140625 C-42.08628906 36.67753906 -42.05148437 37.66367188 -42.015625 38.6796875 C-42.30859375 41.37890625 -42.30859375 41.37890625 -43.65625 43.25 C-45.30859375 44.37890625 -45.30859375 44.37890625 -47.93359375 44.12890625 C-50.30859375 43.37890625 -50.30859375 43.37890625 -51.30859375 42.37890625 C-51.40973075 39.36082562 -51.44828284 36.36610112 -51.44140625 33.34765625 C-51.44236298 32.44140503 -51.4433197 31.53515381 -51.44430542 30.60144043 C-51.44498728 28.68139578 -51.44313257 26.76134884 -51.43896484 24.84130859 C-51.43361667 21.89154921 -51.43890963 18.94194211 -51.4453125 15.9921875 C-51.44465172 14.13151008 -51.44337056 12.27083275 -51.44140625 10.41015625 C-51.44343048 9.52162964 -51.44545471 8.63310303 -51.44754028 7.71765137 C-51.42354363 1.49385613 -51.42354363 1.49385613 -50.30859375 0.37890625 C-46.23171689 0.12463563 -42.1424532 0.19367254 -38.05859375 0.19140625 C-36.91261719 0.17916016 -35.76664062 0.16691406 -34.5859375 0.15429688 C-33.47863281 0.15236328 -32.37132812 0.15042969 -31.23046875 0.1484375 C-30.2156543 0.14432861 -29.20083984 0.14021973 -28.15527344 0.13598633 C-25.30859375 0.37890625 -25.30859375 0.37890625 -22.59863281 1.47924805 C-21.84291992 1.77613525 -21.08720703 2.07302246 -20.30859375 2.37890625 C-19.46296875 1.92515625 -18.61734375 1.47140625 -17.74609375 1.00390625 C-12.12587144 -1.65292611 -5.99593957 -1.6131208 0 0 Z " fill="#6782A2" transform="translate(302.30859375,132.62109375)"/>
<path d="M0 0 C3.5625 0.5 3.5625 0.5 5.57373047 2.61303711 C7.70606418 5.70840246 9.3319812 8.79663932 10.9453125 12.19140625 C11.24565399 12.81853012 11.54599548 13.44565399 11.85543823 14.09178162 C12.80560291 16.07916017 13.74672819 18.07066066 14.6875 20.0625 C15.3262156 21.40328427 15.96553314 22.74378197 16.60546875 24.08398438 C17.77869864 26.54194979 18.9476677 29.00176237 20.11376953 31.46313477 C20.96209478 33.24141548 21.83877856 35.00754419 22.78076172 36.73803711 C23.88589188 39.22889419 23.27403006 40.93849178 22.5625 43.5 C19.5925 43.995 19.5925 43.995 16.5625 44.5 C15.74889005 43.20903219 14.93664954 41.91720125 14.125 40.625 C13.67253906 39.90570313 13.22007812 39.18640625 12.75390625 38.4453125 C11.5625 36.5 11.5625 36.5 10.5625 34.5 C3.3025 34.17 -3.9575 33.84 -11.4375 33.5 C-12.0975 35.48 -12.7575 37.46 -13.4375 39.5 C-15.5625 42.375 -15.5625 42.375 -17.4375 44.5 C-19.0875 44.17 -20.7375 43.84 -22.4375 43.5 C-23.63496285 40.03920078 -23.49157089 38.63438671 -22.1015625 35.1796875 C-21.43516021 33.90442741 -20.75449372 32.63655658 -20.0625 31.375 C-19.31917045 29.96352404 -18.57839592 28.55070032 -17.83984375 27.13671875 C-17.44780762 26.39083496 -17.05577148 25.64495117 -16.65185547 24.87646484 C-14.10810442 19.89840439 -11.81228945 14.79583775 -9.49658203 9.70849609 C-9.14063965 8.94230957 -8.78469727 8.17612305 -8.41796875 7.38671875 C-8.10754639 6.70826904 -7.79712402 6.02981934 -7.47729492 5.33081055 C-5.42292631 1.71359754 -4.19433988 0.6100858 0 0 Z " fill="#6984A3" transform="translate(120.4375,132.5)"/>
<path d="M0 0 C2 2 2 2 2.1953125 5.4765625 C2.18387695 6.85952633 2.15791258 8.24238057 2.125 9.625 C2.08375 12.05875 2.0425 14.4925 2 17 C8.6 17 15.2 17 22 17 C21.92098174 12.15333889 21.92098174 12.15333889 21.81982422 7.30712891 C21.8051883 5.53712725 21.90071486 3.76727545 22 2 C24 0 24 0 27.0625 -0.1875 C30 0 30 0 31 1 C31.1259732 4.00636955 31.18868855 6.9885053 31.203125 9.99609375 C31.20882507 10.8999733 31.21452515 11.80385284 31.22039795 12.73512268 C31.22986229 14.65095849 31.2363876 16.56681069 31.24023438 18.48266602 C31.24994769 21.42167368 31.28096047 24.35998457 31.3125 27.29882812 C31.31902888 29.15624583 31.32427981 31.01366855 31.328125 32.87109375 C31.3404718 33.75445908 31.3528186 34.6378244 31.36553955 35.54795837 C31.35644531 38.02514648 31.35644531 38.02514648 31 42 C28 44 28 44 25.375 43.75 C24.59125 43.5025 23.8075 43.255 23 43 C21.46809203 39.93618406 21.89756387 36.73034134 21.9375 33.375 C21.958125 30.94125 21.97875 28.5075 22 26 C15.4 26 8.8 26 2 26 C2.11835121 30.80190992 2.11835121 30.80190992 2.27026367 35.6027832 C2.3067792 38.53462699 2.31815996 40.52875438 0.65234375 42.99609375 C-1 44 -1 44 -3.625 43.75 C-6 43 -6 43 -7 42 C-7.08871273 38.97022196 -7.1151935 35.96332978 -7.09765625 32.93359375 C-7.0962413 32.02497086 -7.09482635 31.11634796 -7.09336853 30.18019104 C-7.08775193 27.26592779 -7.07519665 24.35174019 -7.0625 21.4375 C-7.05748714 19.46679798 -7.05292386 17.49609476 -7.04882812 15.52539062 C-7.03777711 10.68356441 -7.02050138 5.84179505 -7 1 C-4.48718205 -0.25640898 -2.78302919 -0.20872719 0 0 Z " fill="#6681A2" transform="translate(12,133)"/>
<path d="M0 0 C2.62313668 2.62313668 2.26376695 3.83328575 2.30859375 7.48828125 C2.34629883 9.13666992 2.34629883 9.13666992 2.38476562 10.81835938 C2.41974421 13.13601444 2.45103235 15.45372832 2.47851562 17.77148438 C2.50494141 18.87427734 2.53136719 19.97707031 2.55859375 21.11328125 C2.57204834 22.12173096 2.58550293 23.13018066 2.59936523 24.16918945 C3.06196072 27.43780289 4.08271181 29.33561331 6 32 C8.74544925 33.84337307 11.09359774 34.33963362 14.375 34.4375 C15.10460937 34.47746094 15.83421875 34.51742187 16.5859375 34.55859375 C20.39014682 33.67833172 22.91602932 32.27249171 25 29 C25.84108108 24.62721719 25.79349875 20.31670568 25.75 15.875 C25.75764371 13.51818977 25.77290855 11.16138827 25.796875 8.8046875 C25.79010742 7.76296387 25.78333984 6.72124023 25.77636719 5.64794922 C26 3 26 3 28 0 C31 -0.3125 31 -0.3125 34 0 C37.59618108 3.59618108 36.36947676 9.19928737 36.375 14.0625 C36.39949219 15.17044922 36.42398438 16.27839844 36.44921875 17.41992188 C36.47662331 25.14344158 35.73372759 32.06191613 30.22021484 37.87719727 C24.13166027 43.39975649 19.46790653 44.47009778 11.26171875 44.3046875 C5.67053273 43.78239707 2.02390332 42.20587708 -1.78125 38.05859375 C-5.8501404 32.84772704 -7.12784918 29.25466958 -7.09765625 22.58203125 C-7.09443359 21.32841797 -7.09121094 20.07480469 -7.08789062 18.78320312 C-7.07951172 17.47287109 -7.07113281 16.16253906 -7.0625 14.8125 C-7.05748317 13.47721519 -7.05292059 12.14192859 -7.04882812 10.80664062 C-7.03702695 7.53771527 -7.02056297 4.26888009 -7 1 C-4.48718205 -0.25640898 -2.78302919 -0.20872719 0 0 Z " fill="#6A84A4" transform="translate(203,133)"/>
<path d="M0 0 C0.70125 0.70125 1.4025 1.4025 2.125 2.125 C3.07375 2.74375 4.0225 3.3625 5 4 C7.82078213 3.25556887 7.82078213 3.25556887 11 2 C15.29961692 1.34509146 19.22952989 1.02867787 23.12890625 3.16796875 C26.51832506 5.92054478 29.16307144 8.60612507 30 13 C29.969755 17.94001646 29.2209235 22.11267853 26 26 C21.24951027 29.28010005 16.61021001 29.90325385 11 29 C7.24680792 27.15752389 5.4973035 25.994607 3.625 22.25 C3.41875 21.5075 3.2125 20.765 3 20 C2.2575 20.53625 1.515 21.0725 0.75 21.625 C-0.61125 22.305625 -0.61125 22.305625 -2 23 C-4.3125 22.1875 -4.3125 22.1875 -6 21 C-5.5542471 18.50378375 -5.11759294 17.13938047 -3.4609375 15.17578125 C-1.66529125 12.50151665 -1.741161 11.11244523 -1.9375 7.9375 C-2.20870767 3.31306151 -2.20870767 3.31306151 0 0 Z " fill="#DBF0F1" transform="translate(278,139)"/>
<path d="M0 0 C6.43556597 1.07259433 9.67238086 7.53419983 13.3125 12.5625 C14.3334375 14.0475 14.3334375 14.0475 15.375 15.5625 C19.34228724 11.83565441 22.62496431 7.78211208 25.921875 3.453125 C27.375 1.5625 27.375 1.5625 28.375 0.5625 C30.37458364 0.52169217 32.37545254 0.51995644 34.375 0.5625 C35.09765625 2.73046875 35.09765625 2.73046875 35.375 5.5625 C33.93359375 8.17578125 33.93359375 8.17578125 31.8125 10.875 C30.71035156 12.33486328 30.71035156 12.33486328 29.5859375 13.82421875 C27.375 16.5625 27.375 16.5625 25.5390625 18.45703125 C20.71710285 23.66709985 20.68701518 28.83613421 20.68774414 35.66064453 C20.65755718 41.13988566 20.65755718 41.13988566 19.01953125 43.58984375 C17.375 44.5625 17.375 44.5625 14.75 44.3125 C12.375 43.5625 12.375 43.5625 11.375 42.5625 C11.44460937 40.98662109 11.44460937 40.98662109 11.515625 39.37890625 C11.97082101 27.21262572 7.87039739 20.74666097 0.28125 11.48828125 C-2.30576827 8.25528952 -3.57257436 5.82863622 -3.625 1.5625 C-2.625 0.5625 -2.625 0.5625 0 0 Z " fill="#6883A3" transform="translate(58.625,132.4375)"/>
<path d="M0 0 C0.99 0.33 1.98 0.66 3 1 C3 2.98 3 4.96 3 7 C4.32 6.34 5.64 5.68 7 5 C9.15170811 9.30341622 8.37274828 14.54456668 6.9375 19 C4.32390185 25.19202927 0.48918169 29.825603 -5.6015625 32.69921875 C-10.44119267 34.36499094 -15.10704783 34.51515422 -20.1875 34.5 C-21.50137695 34.54253906 -21.50137695 34.54253906 -22.84179688 34.5859375 C-27.25519381 34.59932157 -29.31941318 34.53540729 -32.875 31.73828125 C-33.926875 30.38283203 -33.926875 30.38283203 -35 29 C-35.66644531 28.26136719 -36.33289063 27.52273437 -37.01953125 26.76171875 C-37.61121094 26.07722656 -38.20289063 25.39273438 -38.8125 24.6875 C-39.41707031 23.99011719 -40.02164062 23.29273438 -40.64453125 22.57421875 C-41.09183594 22.05472656 -41.53914063 21.53523438 -42 21 C-40.68 20.34 -39.36 19.68 -38 19 C-36.02 20.65 -34.04 22.3 -32 24 C-32 23.34 -32 22.68 -32 22 C-32.66 21.34 -33.32 20.68 -34 20 C-32.6875 18 -32.6875 18 -31 16 C-30.01 16 -29.02 16 -28 16 C-26.65668346 17.99330842 -25.32405988 19.99384866 -24 22 C-19.82591295 24.64505306 -15.79009269 24.51560026 -11 24 C-6.71715035 22.65169548 -5.40345789 21.66375331 -3.0625 17.8125 C-1.5473937 12.3759421 -2.2072099 8.3783703 -4 3 C-3.34 3 -2.68 3 -2 3 C-1.34 2.01 -0.68 1.02 0 0 Z " fill="#6984A2" transform="translate(309,143)"/>
<path d="M0 0 C3.0625 0.1875 3.0625 0.1875 5.0625 2.1875 C5.23745606 4.69670846 5.29419569 7.09374941 5.2578125 9.6015625 C5.2549826 10.33120209 5.25215271 11.06084167 5.24923706 11.81259155 C5.23803002 14.14606028 5.2129251 16.47914703 5.1875 18.8125 C5.17747085 20.39322363 5.16834489 21.97395327 5.16015625 23.5546875 C5.13808905 27.43243914 5.10355615 31.30990478 5.0625 35.1875 C5.69341553 35.18226318 6.32433105 35.17702637 6.97436523 35.17163086 C9.81623347 35.15092174 12.65808588 35.13785934 15.5 35.125 C16.98983398 35.11243164 16.98983398 35.11243164 18.50976562 35.09960938 C19.45400391 35.09638672 20.39824219 35.09316406 21.37109375 35.08984375 C22.24564209 35.08460693 23.12019043 35.07937012 24.02124023 35.07397461 C26.0625 35.1875 26.0625 35.1875 27.0625 36.1875 C27.1875 39.1875 27.1875 39.1875 27.0625 42.1875 C25.20535943 44.04464057 22.13742951 43.31798681 19.65625 43.3203125 C18.35558594 43.32160156 17.05492187 43.32289063 15.71484375 43.32421875 C15.03405762 43.32212402 14.35327148 43.3200293 13.65185547 43.31787109 C11.57121485 43.3125224 9.49079011 43.3178168 7.41015625 43.32421875 C5.45916016 43.32228516 5.45916016 43.32228516 3.46875 43.3203125 C2.26541016 43.31918457 1.06207031 43.31805664 -0.17773438 43.31689453 C-2.9375 43.1875 -2.9375 43.1875 -3.9375 42.1875 C-4.038637 39.16941937 -4.07718909 36.17469487 -4.0703125 33.15625 C-4.07126923 32.24999878 -4.07222595 31.34374756 -4.07321167 30.41003418 C-4.07389353 28.48998953 -4.07203882 26.56994259 -4.06787109 24.64990234 C-4.06252292 21.70014296 -4.06781588 18.75053586 -4.07421875 15.80078125 C-4.07355797 13.94010383 -4.07227681 12.0794265 -4.0703125 10.21875 C-4.07233673 9.33022339 -4.07436096 8.44169678 -4.07644653 7.52624512 C-4.04842445 0.25841007 -4.04842445 0.25841007 0 0 Z " fill="#6783A3" transform="translate(159.9375,132.8125)"/>
<path d="M0 0 C4.61866158 4.03627343 6.85234812 8.24331368 9.3125 13.8125 C9.67150391 14.60076172 10.03050781 15.38902344 10.40039062 16.20117188 C11.27694531 18.12959217 12.13987894 20.06419404 13 22 C12.01 22 11.02 22 10 22 C8.31201173 23.43750191 8.31201173 23.43750191 7 25 C6.34 23.68 5.68 22.36 5 21 C4.34 21.99 3.68 22.98 3 24 C0.1796875 24.29296875 0.1796875 24.29296875 -3.125 24.1875 C-4.22070312 24.16042969 -5.31640625 24.13335937 -6.4453125 24.10546875 C-7.70988281 24.05326172 -7.70988281 24.05326172 -9 24 C-8.12687345 22.01071167 -7.22566107 20.03373183 -6.3125 18.0625 C-5.81363281 16.96035156 -5.31476563 15.85820312 -4.80078125 14.72265625 C-3 12 -3 12 -0.41796875 11.24609375 C0.37996094 11.16488281 1.17789063 11.08367187 2 11 C2.66 10.34 3.32 9.68 4 9 C4 8.34 4 7.68 4 7 C3.34 7 2.68 7 2 7 C2 6.34 2 5.68 2 5 C1.34 5 0.68 5 0 5 C0 3.35 0 1.7 0 0 Z " fill="#6D87A5" transform="translate(123,133)"/>
<path d="M0 0 C1.588125 -0.061875 3.17625 -0.12375 4.8125 -0.1875 C6.15248047 -0.23970703 6.15248047 -0.23970703 7.51953125 -0.29296875 C10 0 10 0 11.796875 1.29296875 C13.82466041 4.17005389 13.42309743 6.61522055 13 10 C11.5625 11.9375 11.5625 11.9375 9 13 C5.9521497 13.23081827 3.06655253 13.13528908 0 13 C0 8.71 0 4.42 0 0 Z " fill="#D6EBEF" transform="translate(260,141)"/>
<path d="M0 0 C0.66 0 1.32 0 2 0 C0.97090945 3.02790103 0.05791696 3.96409484 -2.703125 5.67578125 C-19.43419634 13.39639677 -38.26844391 20.87123517 -57 20 C-57 19.34 -57 18.68 -57 18 C-56.42258057 17.90501221 -55.84516113 17.81002441 -55.25024414 17.7121582 C-25.72024632 13.70408183 -25.72024632 13.70408183 0 0 Z " fill="#92AFC1" transform="translate(227,271)"/>
<path d="M0 0 C0.66 0 1.32 0 2 0 C1.41916933 5.50909094 -0.51933757 9.93543272 -2.875 14.875 C-3.27138672 15.70636475 -3.66777344 16.53772949 -4.07617188 17.39428711 C-10.04127646 29.52911324 -17.94957376 41.81103887 -28 51 C-28.66 51 -29.32 51 -30 51 C-28.48695159 47.56411923 -26.45633299 45.07478294 -24 42.25 C-13.52356331 29.58395436 -5.98013415 15.26659246 0 0 Z " fill="#96B2C1" transform="translate(288,198)"/>
<path d="M0 0 C0.66 0 1.32 0 2 0 C0.61270238 4.04628472 -1.3390816 6.68467853 -4 10 C-11.72985879 21.44337858 -18.04474591 33.73826571 -22 47 C-22.66 47 -23.32 47 -24 47 C-23.45991305 41.23400132 -21.8361467 36.62468708 -19.4375 31.375 C-19.08179932 30.58810791 -18.72609863 29.80121582 -18.35961914 28.99047852 C-13.61961114 18.73558331 -7.85457201 8.21545775 0 0 Z " fill="#95B4C3" transform="translate(54,67)"/>
<path d="M0 0 C-1.93617059 2.39174014 -3.31257955 3.1202229 -6.25 4.25 C-10.10891504 5.79843019 -12.42541939 8.16547575 -15.23828125 11.16796875 C-16.9662615 12.96491495 -18.76591656 14.53938637 -20.6875 16.125 C-24.43422151 19.28234958 -27.42490898 22.27472694 -29 27 C-29.99 26.67 -30.98 26.34 -32 26 C-28.01249613 14.16407582 -15.90210846 5.82673362 -5.453125 0.00390625 C-3 -1 -3 -1 0 0 Z " fill="#F0F6F5" transform="translate(224,60)"/>
<path d="M0 0 C-3.12924684 1.73954883 -6.05280692 2.56802172 -9.55078125 3.296875 C-10.63520508 3.53051758 -11.71962891 3.76416016 -12.83691406 4.00488281 C-14.5573291 4.37371582 -14.5573291 4.37371582 -16.3125 4.75 C-25.268339 6.7327788 -33.65459041 9.00415596 -42.046875 12.703125 C-44.98774065 13.99461626 -47.94017893 15.02891906 -51 16 C-50 13 -50 13 -48.0234375 11.7890625 C-33.04269475 5.20460625 -16.60628977 -1.03311019 0 0 Z " fill="#92AFC1" transform="translate(150,20)"/>
<path d="M0 0 C0.66 0 1.32 0 2 0 C-3.50671168 12.16666141 -15.17563573 25.87303496 -27 32 C-29.26171875 32.65234375 -29.26171875 32.65234375 -31 33 C-30.34 32.01 -29.68 31.02 -29 30 C-28.34 30 -27.68 30 -27 30 C-27 29.34 -27 28.68 -27 28 C-26.34 28 -25.68 28 -25 28 C-25 27.34 -25 26.68 -25 26 C-23.68 26 -22.36 26 -21 26 C-21 25.34 -21 24.68 -21 24 C-20.21625 23.7525 -19.4325 23.505 -18.625 23.25 C-15.53345968 21.77783794 -15.30679366 21.04918521 -14 18 C-13.319375 17.175 -12.63875 16.35 -11.9375 15.5 C-10.13355073 13.17232353 -9.42308458 11.8558209 -9 9 C-8.34 9 -7.68 9 -7 9 C-5.77666468 7.5458467 -4.61882543 6.03601457 -3.5 4.5 C-2.38117457 2.96398543 -1.22333532 1.4541533 0 0 Z " fill="#F0F6F5" transform="translate(133,215)"/>
<path d="M0 0 C3.40772521 1.13047344 6.81001263 2.27534193 10.20703125 3.4375 C11.74215898 3.95841738 13.27731581 4.47924902 14.8125 5 C15.56853516 5.26039063 16.32457031 5.52078125 17.10351562 5.7890625 C23.94997092 8.10039779 30.84985678 9.9380816 38.0625 10.625 C39.361875 10.74875 40.66125 10.8725 42 11 C42 11.66 42 12.32 42 13 C36.21513133 13.16956774 31.07180571 12.66406367 25.4375 11.375 C24.28036499 11.1131189 24.28036499 11.1131189 23.09985352 10.84594727 C15.50652852 9.03267402 7.90768222 6.68475225 1 3 C0.67 2.01 0.34 1.02 0 0 Z " fill="#92AEBD" transform="translate(108,278)"/>
<path d="M0 0 C0.66 0.33 1.32 0.66 2 1 C0.35 2.32 -1.3 3.64 -3 5 C-2.67 5.99 -2.34 6.98 -2 8 C-3.051875 7.814375 -4.10375 7.62875 -5.1875 7.4375 C-8.65249139 7.03987804 -10.69664298 7.13069552 -14 8 C-14.886875 8.103125 -15.77375 8.20625 -16.6875 8.3125 C-19.1746842 8.7768844 -19.1746842 8.7768844 -20.3125 11.0625 C-20.539375 11.701875 -20.76625 12.34125 -21 13 C-20.34 13.33 -19.68 13.66 -19 14 C-20.32 14 -21.64 14 -23 14 C-23.33 11.69 -23.66 9.38 -24 7 C-20.2143102 5.56757683 -16.54093539 4.71461269 -12.5625 4.0625 C-9.11347523 3.47983097 -6.11638951 2.77558722 -2.9375 1.3125 C-1.968125 0.879375 -0.99875 0.44625 0 0 Z " fill="#F0F5F4" transform="translate(175,103)"/>
<path d="M0 0 C-7.5337219 4.55162365 -15.43711307 5.62827539 -24 7 C-24.33 8.98 -24.66 10.96 -25 13 C-32.26 13 -39.52 13 -47 13 C-47 12.67 -47 12.34 -47 12 C-45.74703125 11.99742188 -44.4940625 11.99484375 -43.203125 11.9921875 C-41.55204766 11.95466302 -39.90100665 11.9155155 -38.25 11.875 C-37.425 11.87757812 -36.6 11.88015625 -35.75 11.8828125 C-33.35793484 11.80564911 -31.30031469 11.66822915 -29 11 C-26.41296421 8.16417201 -26.41296421 8.16417201 -25 5 C-23.35911282 3.35911282 -21.32353734 3.79849061 -19.0625 3.6875 C-13.8577007 3.28713082 -9.79552262 1.95568435 -5.09375 -0.2578125 C-3 -1 -3 -1 0 0 Z " fill="#B4D1E1" transform="translate(176,103)"/>
<path d="M0 0 C6 8 6 8 6 12 C2.04 12 -1.92 12 -6 12 C-4.02 8.04 -2.04 4.08 0 0 Z " fill="#D8EDF4" transform="translate(120,145)"/>
<path d="M0 0 C11.64072454 0.39865495 23.2400898 2.38565389 34 7 C34 7.66 34 8.32 34 9 C32.97003906 8.74605469 31.94007813 8.49210937 30.87890625 8.23046875 C20.64269254 5.74440998 10.39183576 3.7167989 0 2 C0 1.34 0 0.68 0 0 Z " fill="#95AEC1" transform="translate(171,20)"/>
<path d="M0 0 C11.22 0 22.44 0 34 0 C34 0.33 34 0.66 34 1 C24.1 1.33 14.2 1.66 4 2 C3.67 3.98 3.34 5.96 3 8 C2.01 8 1.02 8 0 8 C0 8.66 0 9.32 0 10 C-2.64 10 -5.28 10 -8 10 C-8 9.34 -8 8.68 -8 8 C-5.36 7.34 -2.72 6.68 0 6 C0 4.02 0 2.04 0 0 Z " fill="#B0CFE1" transform="translate(165,194)"/>
<path d="M0 0 C1.65 0.33 3.3 0.66 5 1 C5.33 2.65 5.66 4.3 6 6 C2.76538003 8.15641331 0.32927039 8.81100973 -3.4375 9.6875 C-4.57058594 9.95949219 -5.70367187 10.23148438 -6.87109375 10.51171875 C-9.74916889 10.96085657 -11.31025087 10.98469931 -14 10 C-12.85546875 8.51171875 -12.85546875 8.51171875 -11 7 C-8.30078125 6.70703125 -8.30078125 6.70703125 -5.3125 6.8125 C-4.31863281 6.83957031 -3.32476562 6.86664063 -2.30078125 6.89453125 C-1.16189453 6.94673828 -1.16189453 6.94673828 0 7 C0 4.69 0 2.38 0 0 Z " fill="#F0F7F7" transform="translate(160,194)"/>
<path d="M0 0 C0.66 0.33 1.32 0.66 2 1 C-0.31129945 5.93710896 -3.59479069 10.12391534 -6.8125 14.5 C-7.73772461 15.78197266 -7.73772461 15.78197266 -8.68164062 17.08984375 C-11.78462267 21.31728582 -14.62016996 24.99668797 -19 28 C-19.33 26.68 -19.66 25.36 -20 24 C-18.35 23.67 -16.7 23.34 -15 23 C-14.87625 22.38125 -14.7525 21.7625 -14.625 21.125 C-14 19 -14 19 -12 17 C-11.525625 16.195625 -11.05125 15.39125 -10.5625 14.5625 C-9.15585434 12.25560111 -7.92095909 10.84707605 -6 9 C-2.32054387 4.89928717 -2.32054387 4.89928717 0 0 Z " fill="#B3D0E0" transform="translate(197,73)"/>
<path d="M0 0 C0.66 0.33 1.32 0.66 2 1 C1.39865234 1.56654297 1.39865234 1.56654297 0.78515625 2.14453125 C-3.78369118 6.56833591 -7.79091397 11.31506726 -11.77734375 16.265625 C-14.7557874 19.92979118 -17.85891647 23.47511848 -21 27 C-21 24 -21 24 -20 22 C-19.34 22 -18.68 22 -18 22 C-17.62875 21.195625 -17.62875 21.195625 -17.25 20.375 C-14.31166636 14.79216608 -10.55506185 9.3988883 -6 5 C-5.34 5 -4.68 5 -4 5 C-4 4.34 -4 3.68 -4 3 C-3.34 3 -2.68 3 -2 3 C-2 2.34 -2 1.68 -2 1 C-1.34 0.67 -0.68 0.34 0 0 Z " fill="#EDF4EE" transform="translate(214,74)"/>
<path d="M0 0 C0.66 0.33 1.32 0.66 2 1 C1.125 5.75 1.125 5.75 0 8 C-0.804375 8.45375 -1.60875 8.9075 -2.4375 9.375 C-5.10199056 10.74953721 -5.10199056 10.74953721 -6 13.0625 C-7 15 -7 15 -9.625 16.25 C-10.40875 16.4975 -11.1925 16.745 -12 17 C-11.41006929 13.46828151 -10.09874127 11.66994505 -7.6875 9.0625 C-5.01237293 6.11765847 -2.45093852 3.1372013 0 0 Z " fill="#EFF6F7" transform="translate(190,87)"/>
<path d="M0 0 C0.5775 0.37125 1.155 0.7425 1.75 1.125 C1.193125 1.26035156 0.63625 1.39570313 0.0625 1.53515625 C-10.79189292 4.59712182 -17.06320609 12.85685978 -24.25 21.125 C-24.91 20.795 -25.57 20.465 -26.25 20.125 C-14.77141712 5.6641311 -14.77141712 5.6641311 -6.25 1.125 C-5.58871094 0.70605469 -4.92742187 0.28710938 -4.24609375 -0.14453125 C-2.25 -0.875 -2.25 -0.875 0 0 Z " fill="#B6D2E1" transform="translate(154.25,203.875)"/>
<path d="M0 0 C0.33 0.99 0.66 1.98 1 3 C-0.8125 5.6875 -0.8125 5.6875 -3 8 C-3.66 8 -4.32 8 -5 8 C-5.268125 8.969375 -5.53625 9.93875 -5.8125 10.9375 C-6.204375 11.948125 -6.59625 12.95875 -7 14 C-7.99 14.33 -8.98 14.66 -10 15 C-11.37195574 16.29355827 -12.71182656 17.62298702 -14 19 C-14.99 18.67 -15.98 18.34 -17 18 C-16.35933594 17.45472656 -15.71867187 16.90945312 -15.05859375 16.34765625 C-9.30546903 11.33189178 -4.43534503 6.21242036 0 0 Z " fill="#B6D2E1" transform="translate(127,226)"/>
<path d="M0 0 C1.73378263 1.50763707 2.91542947 2.84143025 4 4.875 C4 7 4 7 1.5625 9.75 C0.2940625 10.86375 0.2940625 10.86375 -1 12 C-1.99 11.34 -2.98 10.68 -4 10 C-4 9.34 -4 8.68 -4 8 C-3.01 7.34 -2.02 6.68 -1 6 C-0.26656572 2.93443402 -0.26656572 2.93443402 0 0 Z " fill="#768DA5" transform="translate(273,145)"/>
<path d="M0 0 C1.65 1.65 3.3 3.3 5 5 C3.35 6.65 1.7 8.3 0 10 C-1.32 8.35 -2.64 6.7 -4 5 C-2.68 3.35 -1.36 1.7 0 0 Z " fill="#7D8EA4" transform="translate(160,14)"/>
<path d="M0 0 C-0.02320313 0.60328125 -0.04640625 1.2065625 -0.0703125 1.828125 C-0.08835938 2.62734375 -0.10640625 3.4265625 -0.125 4.25 C-0.15980469 5.43335938 -0.15980469 5.43335938 -0.1953125 6.640625 C0.0171622 9.20731941 0.71345895 10.7916067 2 13 C-0.97 12.505 -0.97 12.505 -4 12 C-3.88648483 10.18674449 -3.75887039 8.37436643 -3.625 6.5625 C-3.55539063 5.55316406 -3.48578125 4.54382813 -3.4140625 3.50390625 C-3.27742187 2.67761719 -3.14078125 1.85132813 -3 1 C-1 0 -1 0 0 0 Z " fill="#F4F7F4" transform="translate(162,2)"/>
<path d="M0 0 C0.99 0.33 1.98 0.66 3 1 C1.75160501 2.105981 0.50120766 3.20970201 -0.75 4.3125 C-1.44609375 4.92738281 -2.1421875 5.54226562 -2.859375 6.17578125 C-8.52034261 11 -8.52034261 11 -11 11 C-9.52934075 7.41477124 -7.59934458 5.55613904 -4.5625 3.1875 C-3.78003906 2.56230469 -2.99757813 1.93710937 -2.19140625 1.29296875 C-1.10666016 0.65294922 -1.10666016 0.65294922 0 0 Z " fill="#9DB6C5" transform="translate(79,44)"/>
<path d="M0 0 C1.26724763 3.80174289 0.4750819 5.3511132 -1 9 C-1.66 9.66 -2.32 10.32 -3 11 C-3 11.33 -3 11.66 -3 12 C-4.65 12 -6.3 12 -8 12 C-6.85573734 10.186508 -5.70954608 8.37423275 -4.5625 6.5625 C-3.60537109 5.04849609 -3.60537109 5.04849609 -2.62890625 3.50390625 C-1 1 -1 1 0 0 Z " fill="#D4E7F5" transform="translate(87,146)"/>
<path d="M0 0 C0.66 0.33 1.32 0.66 2 1 C1.38511719 1.74765625 0.77023438 2.4953125 0.13671875 3.265625 C-0.67152344 4.25046875 -1.47976562 5.2353125 -2.3125 6.25 C-3.11300781 7.22453125 -3.91351563 8.1990625 -4.73828125 9.203125 C-6.54442258 11.4366262 -8.29819915 13.68687263 -10 16 C-9.5777503 10.76410369 -8.04304886 8.38289599 -4.4375 4.625 C-3.61121094 3.75101562 -2.78492187 2.87703125 -1.93359375 1.9765625 C-1.29550781 1.32429688 -0.65742187 0.67203125 0 0 Z " fill="#D6F1F9" transform="translate(75,77)"/>
<path d="M0 0 C2.475 0.99 2.475 0.99 5 2 C5 2.99 5 3.98 5 5 C2.11165997 7.10770759 0.61537605 8 -3 8 C-3 6 -3 6 -1 4 C-0.3574765 1.93125966 -0.3574765 1.93125966 0 0 Z " fill="#B2D0E1" transform="translate(212,57)"/>
<path d="M0 0 C0.66 0.33 1.32 0.66 2 1 C-0.61035724 4.37810937 -3.92737222 5.36615632 -8 6 C-11.67387172 6.15328402 -15.32557532 6.11960153 -19 6 C-16.11681004 4.3757595 -13.91661811 3.75306736 -10.625 3.5625 C-6.51205429 3.20337953 -3.65305024 1.9601733 0 0 Z " fill="#EDF2EF" transform="translate(100,248)"/>
<path d="M0 0 C0.66 0 1.32 0 2 0 C1.76228882 0.82902832 1.76228882 0.82902832 1.51977539 1.67480469 C0.95067733 4.22064305 0.7896572 6.59699445 0.68359375 9.203125 C0.64169922 10.1828125 0.59980469 11.1625 0.55664062 12.171875 C0.51732422 13.18765625 0.47800781 14.2034375 0.4375 15.25 C0.39431641 16.28125 0.35113281 17.3125 0.30664062 18.375 C0.20074318 20.9165387 0.09866557 23.45817196 0 26 C-0.33 26 -0.66 26 -1 26 C-1.02886751 21.85418113 -1.04675327 17.70838784 -1.0625 13.5625 C-1.07087891 12.37849609 -1.07925781 11.19449219 -1.08789062 9.97460938 C-1.09111328 8.84990234 -1.09433594 7.72519531 -1.09765625 6.56640625 C-1.10289307 5.52427979 -1.10812988 4.48215332 -1.11352539 3.40844727 C-1 1 -1 1 0 0 Z " fill="#D7F1FB" transform="translate(229,132)"/>
<path d="M0 0 C5.75 0.875 5.75 0.875 8 2 C8 2.99 8 3.98 8 5 C5.69 5.33 3.38 5.66 1 6 C0.67 4.02 0.34 2.04 0 0 Z " fill="#F3F6F2" transform="translate(163,16)"/>
<path d="M0 0 C0.33 0 0.66 0 1 0 C1.33 4.29 1.66 8.58 2 13 C2.66 13 3.32 13 4 13 C4 14.32 4 15.64 4 17 C4.66 17.33 5.32 17.66 6 18 C3.5625 17.625 3.5625 17.625 1 17 C-0.53266582 13.93466836 -0.10276471 10.73245728 -0.0625 7.375 C-0.05798828 6.66859375 -0.05347656 5.9621875 -0.04882812 5.234375 C-0.03703875 3.48954725 -0.01910324 1.744763 0 0 Z " fill="#738BA3" transform="translate(34,159)"/>
<path d="M0 0 C1.32 0.99 2.64 1.98 4 3 C3.67 5.64 3.34 8.28 3 11 C2.01 11 1.02 11 0 11 C0 7.37 0 3.74 0 0 Z " fill="#F3F8F3" transform="translate(159,23)"/>
<path d="M0 0 C0.33 0.99 0.66 1.98 1 3 C-1.64 5.31 -4.28 7.62 -7 10 C-7.66 9.67 -8.32 9.34 -9 9 C-7.549046 5.17475764 -5.61818068 3.80909034 -2 2 C-1.34 2 -0.68 2 0 2 C0 1.34 0 0.68 0 0 Z " fill="#F1F6F0" transform="translate(144,204)"/>
<path d="M0 0 C0.33 0.66 0.66 1.32 1 2 C5.62 1.67 10.24 1.34 15 1 C14.67 1.66 14.34 2.32 14 3 C9.71 3 5.42 3 1 3 C1 3.66 1 4.32 1 5 C0.01 4.67 -0.98 4.34 -2 4 C-1.34 2.68 -0.68 1.36 0 0 Z " fill="#647F97" transform="translate(108,163)"/>
<path d="M0 0 C0.99 0.495 0.99 0.495 2 1 C1.01 1.495 1.01 1.495 0 2 C0 1.34 0 0.68 0 0 Z M-2 2 C-1.34 2.33 -0.68 2.66 0 3 C-2.97 6.3 -5.94 9.6 -9 13 C-9 9.22089522 -8.00296038 8.53893899 -5.5 5.8125 C-4.8503125 5.09707031 -4.200625 4.38164062 -3.53125 3.64453125 C-3.0259375 3.10183594 -2.520625 2.55914062 -2 2 Z " fill="#EFF4F0" transform="translate(132,203)"/>
<path d="M0 0 C2.0625 0.4375 2.0625 0.4375 4 1 C3.67 2.65 3.34 4.3 3 6 C2.01 6 1.02 6 0 6 C-0.38218767 4.34385343 -0.71395102 2.67542976 -1 1 C-0.67 0.67 -0.34 0.34 0 0 Z " fill="#6C88A1" transform="translate(90,133)"/>
<path d="M0 0 C1.2065625 0.0309375 1.2065625 0.0309375 2.4375 0.0625 C2.1075 1.0525 1.7775 2.0425 1.4375 3.0625 C0.4475 3.0625 -0.5425 3.0625 -1.5625 3.0625 C-1.8925 7.0225 -2.2225 10.9825 -2.5625 15.0625 C-2.8925 15.0625 -3.2225 15.0625 -3.5625 15.0625 C-3.58935412 12.75006208 -3.60882841 10.4375373 -3.625 8.125 C-3.63660156 6.83722656 -3.64820313 5.54945313 -3.66015625 4.22265625 C-3.53232863 0.08615436 -3.53232863 0.08615436 0 0 Z " fill="#66829C" transform="translate(233.5625,132.9375)"/>
<path d="M0 0 C0.66 0.33 1.32 0.66 2 1 C-0.97 5.95 -0.97 5.95 -4 11 C-4.99 10.34 -5.98 9.68 -7 9 C-4.69 6.03 -2.38 3.06 0 0 Z " fill="#CFEAF4" transform="translate(273,232)"/>
<path d="M0 0 C0.66 1.32 1.32 2.64 2 4 C0.75 5.5625 0.75 5.5625 -1 7 C-3.1875 6.6875 -3.1875 6.6875 -5 6 C-4.67 5.01 -4.34 4.02 -4 3 C-3.01 2.67 -2.02 2.34 -1 2 C-0.67 1.34 -0.34 0.68 0 0 Z " fill="#748EA6" transform="translate(77,170)"/>
<path d="M0 0 C-1.38877354 3.35620271 -2.91677965 5.07298728 -6 7 C-6.66 7 -7.32 7 -8 7 C-6.47663111 3.31852519 -4.31953005 0 0 0 Z " fill="#98B4BE" transform="translate(246,259)"/>
<path d="M0 0 C-0.33 1.65 -0.66 3.3 -1 5 C-2.65 4.67 -4.3 4.34 -6 4 C-5.67 3.01 -5.34 2.02 -5 1 C-2 0 -2 0 0 0 Z " fill="#F4F6F1" transform="translate(156,16)"/>
<path d="M0 0 C0.66 0.33 1.32 0.66 2 1 C-0.64 3.97 -3.28 6.94 -6 10 C-6.66 9.34 -7.32 8.68 -8 8 C-5.36 5.36 -2.72 2.72 0 0 Z " fill="#D6F0F8" transform="translate(243,230)"/>
<path d="M0 0 C0.99 1.485 0.99 1.485 2 3 C2.53625 3.680625 3.0725 4.36125 3.625 5.0625 C5 7 5 7 5 9 C3.35 8.67 1.7 8.34 0 8 C0 5.36 0 2.72 0 0 Z " fill="#D2EAF0" transform="translate(196,162)"/>
<path d="M0 0 C0.33 0 0.66 0 1 0 C1.14285714 8.57142857 1.14285714 8.57142857 0 12 C-0.66 12 -1.32 12 -2 12 C-1 3.42857143 -1 3.42857143 0 0 Z " fill="#788FA7" transform="translate(316,150)"/>
<path d="M0 0 C-3.99560608 2.83022097 -7.42737323 1.76210446 -12 1 C-12 0.67 -12 0.34 -12 0 C-7.66726186 -0.92844389 -4.33273814 -0.92844389 0 0 Z " fill="#9AB5C6" transform="translate(194,287)"/>
<path d="M0 0 C0.66 0 1.32 0 2 0 C0.52307692 6.52307692 0.52307692 6.52307692 -2.125 8.9375 C-2.74375 9.288125 -3.3625 9.63875 -4 10 C-4.66 9.67 -5.32 9.34 -6 9 C-4.73046875 7.53515625 -3.4609375 6.0703125 -2.19140625 4.60546875 C-0.79128769 2.89287029 -0.79128769 2.89287029 0 0 Z " fill="#D1E5F4" transform="translate(237,163)"/>
<path d="M0 0 C2.9719385 1.12451727 5.33440687 2.22293791 8 4 C8 4.66 8 5.32 8 6 C4.65750371 5.40312566 2.53563658 4.26396123 0 2 C0 1.34 0 0.68 0 0 Z " fill="#97ADBA" transform="translate(88,267)"/>
<path d="M0 0 C-1.28519565 2.86697492 -2.57129254 4.97607712 -5 7 C-5.66 7 -6.32 7 -7 7 C-3.86206897 0 -3.86206897 0 0 0 Z " fill="#95ADBA" transform="translate(265,242)"/>
<path d="M0 0 C0.66 0.33 1.32 0.66 2 1 C0.75453595 4.73639216 -0.63404953 5.18756513 -4 7 C-2.92598892 4.08482708 -2.22189824 2.22189824 0 0 Z " fill="#6F8AA1" transform="translate(117,133)"/>
<path d="M0 0 C0.99 0 1.98 0 3 0 C3 1.98 3 3.96 3 6 C2.01 6.33 1.02 6.66 0 7 C0 4.69 0 2.38 0 0 Z " fill="#FAF4EB" transform="translate(160,194)"/>
<path d="M0 0 C1.32 1.32 2.64 2.64 4 4 C2.35 4 0.7 4 -1 4 C-0.67 4.99 -0.34 5.98 0 7 C-0.66 7 -1.32 7 -2 7 C-1.125 1.125 -1.125 1.125 0 0 Z " fill="#CBE4F0" transform="translate(278,139)"/>
<path d="M0 0 C1.98 0 3.96 0 6 0 C5.360625 0.598125 4.72125 1.19625 4.0625 1.8125 C1.79689611 3.90810337 1.79689611 3.90810337 1 7 C0.67 7 0.34 7 0 7 C0 4.69 0 2.38 0 0 Z " fill="#DDF4FD" transform="translate(260,163)"/>
<path d="M0 0 C-0.66 1.32 -1.32 2.64 -2 4 C-3.32 3.34 -4.64 2.68 -6 2 C-6 1.34 -6 0.68 -6 0 C-3.50907189 -1.24546405 -2.58919267 -0.7767578 0 0 Z " fill="#7086A1" transform="translate(275,153)"/>
<path d="M0 0 C0.66 0.33 1.32 0.66 2 1 C2 3.64 2 6.28 2 9 C0.22293791 6.33440687 -0.87548273 3.9719385 -2 1 C-1.34 0.67 -0.68 0.34 0 0 Z " fill="#D2E7F0" transform="translate(315,141)"/>
<path d="M0 0 C0.33 0 0.66 0 1 0 C1.25 6.625 1.25 6.625 -1 10 C-1.66 9.67 -2.32 9.34 -3 9 C-2.01 6.03 -1.02 3.06 0 0 Z " fill="#D4EFF6" transform="translate(35,102)"/>
<path d="M0 0 C0.66 0.66 1.32 1.32 2 2 C0.35 3.32 -1.3 4.64 -3 6 C-3.33 5.01 -3.66 4.02 -4 3 C-3 1 -3 1 0 0 Z " fill="#ADCDE4" transform="translate(205,66)"/>
<path d="M0 0 C-0.33 0.99 -0.66 1.98 -1 3 C-2.98 3.33 -4.96 3.66 -7 4 C-7 3.01 -7 2.02 -7 1 C-4.50935112 0.31292445 -2.62113708 0 0 0 Z " fill="#9BB6C8" transform="translate(137,21)"/>
</svg>
