<?xml version="1.0" standalone="no"?>
<!DOCTYPE svg PUBLIC "-//W3C//DTD SVG 20010904//EN"
 "http://www.w3.org/TR/2001/REC-SVG-20010904/DTD/svg10.dtd">
<svg version="1.0" xmlns="http://www.w3.org/2000/svg"
 width="840.000000pt" height="705.000000pt" viewBox="0 0 840.000000 705.000000"
 preserveAspectRatio="xMidYMid meet">

<g transform="translate(0.000000,705.000000) scale(0.100000,-0.100000)"
fill="#000000" stroke="none">
<path d="M4883 6905 c-83 -23 -163 -68 -235 -134 l-67 -62 -88 13 c-117 17
-529 17 -653 0 -235 -33 -479 -99 -679 -184 -74 -31 -96 -37 -102 -26 -5 7 -9
16 -9 20 0 17 -66 81 -101 99 -45 23 -125 25 -173 5 -21 -9 -180 -158 -398
-373 -199 -197 -398 -392 -441 -433 -44 -41 -87 -91 -97 -110 -44 -86 -33
-165 32 -236 l41 -45 -46 -87 c-196 -374 -297 -783 -297 -1207 0 -352 58 -648
192 -988 l51 -128 -180 -182 c-231 -235 -293 -326 -349 -514 -36 -120 -44
-303 -19 -424 36 -178 112 -325 237 -455 125 -130 259 -210 432 -257 109 -29
336 -31 440 -3 207 55 311 125 559 374 l189 189 101 -39 c119 -46 299 -99 412
-122 44 -9 91 -19 104 -22 23 -5 18 -12 -72 -102 -120 -121 -135 -156 -100
-229 29 -62 108 -91 166 -62 12 6 101 89 197 184 l175 173 160 6 c88 3 206 13
263 21 990 141 1812 833 2117 1782 73 227 111 451 121 703 l6 165 519 520
c574 576 562 561 561 685 0 108 -58 201 -155 252 -63 33 -185 32 -250 -2 -32
-17 -165 -143 -417 -394 -203 -203 -371 -368 -373 -365 -2 2 -20 51 -41 109
-22 58 -56 143 -78 190 l-39 85 28 23 c136 113 153 135 153 207 0 114 -117
201 -224 165 -19 -6 -57 -29 -84 -51 l-50 -39 -46 64 c-80 112 -199 247 -316
359 -108 104 -308 261 -397 314 -40 23 -43 28 -43 66 0 69 -28 178 -62 246
-102 202 -355 315 -575 256z m-370 -350 c271 -42 487 -109 722 -224 415 -204
756 -509 1001 -898 266 -421 401 -959 364 -1451 -45 -612 -284 -1137 -710
-1562 -390 -391 -884 -632 -1435 -701 -125 -16 -462 -16 -575 0 -584 80 -1066
320 -1460 727 -223 230 -393 489 -513 784 -72 177 -131 398 -159 600 -17 125
-16 507 1 625 80 551 317 1030 696 1409 400 401 930 651 1496 706 128 12 452
4 572 -15z"/>
<path d="M5810 4331 c-14 -5 -39 -15 -56 -24 -29 -15 -34 -15 -70 3 -32 17
-59 20 -169 20 -104 0 -135 -3 -151 -16 -10 -8 -13 -13 -7 -9 9 4 11 1 7 -9
-3 -9 -10 -13 -15 -10 -10 6 -13 -416 -3 -465 5 -22 11 -30 21 -27 8 3 11 1 8
-4 -8 -13 7 -13 39 0 17 6 24 14 20 25 -3 8 -1 15 5 15 7 0 11 24 11 65 l0 65
44 0 c41 0 48 -4 95 -56 28 -30 51 -60 51 -65 0 -5 10 -4 23 2 20 11 21 11 7
-6 -13 -15 -12 -19 9 -36 24 -19 61 -26 61 -10 0 4 12 7 28 7 15 -1 33 3 41 9
12 8 13 7 6 -4 -6 -11 -4 -13 9 -8 10 4 15 3 11 -3 -4 -6 17 -10 55 -10 42 0
59 3 54 11 -4 7 0 9 14 5 24 -8 66 10 57 24 -3 5 0 12 6 16 8 4 9 3 5 -4 -4
-7 -2 -12 3 -12 6 0 11 8 12 18 0 11 2 13 6 4 6 -16 63 34 63 55 0 7 5 13 11
13 6 0 8 7 5 16 -3 8 -2 12 4 9 6 -3 10 3 10 15 0 14 -4 19 -12 14 -7 -5 -9
-2 -5 8 3 9 0 21 -6 28 -9 10 -9 11 1 6 7 -5 12 -1 12 11 0 15 2 16 10 3 8
-12 10 -10 10 10 0 20 2 22 10 10 7 -11 10 -5 10 23 0 21 -3 36 -7 34 -10 -6
-34 19 -26 27 3 3 12 1 20 -6 10 -8 8 4 -6 38 -11 27 -25 48 -31 46 -7 -2 -10
3 -7 11 7 19 -80 100 -100 93 -8 -3 -11 -2 -8 4 14 23 -135 39 -195 21z m235
-51 c-3 -5 -12 -7 -20 -3 -21 7 -19 13 6 13 11 0 18 -4 14 -10z m-315 -5 c0
-2 -7 -8 -15 -15 -12 -10 -15 -10 -15 2 0 8 7 15 15 15 8 0 15 -1 15 -2z m12
-58 c15 -16 21 -18 27 -8 5 7 12 12 17 12 5 0 27 4 48 10 61 17 117 4 167 -39
24 -20 38 -30 32 -21 -7 9 -9 19 -5 23 4 4 1 6 -7 4 -9 -2 -16 6 -18 17 -3 18
-2 18 5 2 4 -10 12 -18 17 -18 6 1 10 -3 10 -8 0 -5 3 -12 7 -16 4 -4 4 -13 2
-20 -3 -7 -1 -16 5 -20 6 -3 11 -34 11 -68 0 -76 -29 -132 -83 -163 -20 -11
-35 -23 -33 -25 12 -12 -123 9 -150 24 -17 9 -35 13 -39 9 -3 -4 -5 0 -3 8 2
9 -3 14 -12 12 -8 -2 -12 0 -8 3 4 4 0 21 -8 38 -9 16 -19 25 -23 20 -8 -14
-46 -33 -65 -33 -24 0 -38 65 -17 80 18 13 40 60 31 65 -6 3 -10 13 -10 21 0
8 5 12 10 9 16 -10 12 42 -4 58 -11 11 -12 17 -3 26 8 8 7 11 -3 12 -8 1 -4 5
10 9 35 12 70 3 92 -23z m353 23 c3 -5 -1 -10 -10 -10 -9 0 -13 5 -10 10 3 6
8 10 10 10 2 0 7 -4 10 -10z m-497 -12 c-2 -7 2 -12 9 -11 21 4 27 -80 9 -119
l-17 -35 -72 1 c-40 1 -73 4 -74 9 -2 4 -3 41 -3 82 l0 74 73 4 c39 1 73 4 75
5 1 1 1 -4 0 -10z m52 -131 c0 -2 -10 -12 -22 -23 l-23 -19 19 23 c18 21 26
27 26 19z"/>
<path d="M2248 4319 c-16 -9 -18 -32 -18 -257 0 -142 4 -253 10 -262 5 -8 10
-11 10 -6 0 5 6 4 13 -2 12 -9 57 1 57 13 0 4 -4 3 -10 0 -5 -3 -10 -2 -10 4
0 5 8 15 18 20 11 7 12 10 3 11 -10 0 -11 8 -6 33 4 17 8 55 8 82 l2 50 138 3
137 3 0 -95 c0 -52 3 -102 7 -111 5 -15 8 -14 20 6 8 13 12 16 9 7 -3 -10 -1
-18 5 -18 6 0 7 -4 4 -10 -3 -5 -1 -10 4 -10 6 0 11 5 11 11 0 5 4 8 9 4 10
-6 22 9 30 35 2 8 5 118 5 243 1 215 0 229 -18 243 -26 18 -51 18 -70 -2 -12
-12 -16 -37 -16 -109 l0 -94 -134 -3 c-119 -3 -136 -1 -145 15 -6 9 -8 17 -4
17 5 0 9 36 9 81 1 45 -2 76 -6 69 -5 -8 -10 -3 -14 14 -7 27 -28 33 -58 15z"/>
<path d="M2881 4321 c-8 -5 -10 -14 -6 -21 6 -9 4 -11 -5 -5 -9 6 -10 2 -5
-16 10 -32 23 -47 46 -54 10 -4 19 -11 19 -17 0 -6 -7 -5 -17 3 -9 8 1 -11 24
-41 24 -33 48 -54 58 -53 12 1 14 -2 7 -9 -15 -15 7 -48 26 -40 10 3 13 1 8
-6 -3 -6 2 -16 11 -22 16 -10 16 -11 -2 -5 -16 5 -18 4 -7 -6 8 -9 12 -46 12
-110 0 -110 5 -130 27 -122 11 4 14 2 9 -5 -4 -7 -1 -12 7 -12 8 0 18 7 21 16
4 10 2 13 -7 7 -6 -4 -4 6 7 21 10 16 14 31 10 35 -5 3 -4 40 1 81 6 41 14 68
17 60 5 -12 7 -13 7 -1 1 8 11 26 24 40 16 18 17 21 3 11 -18 -14 -18 -14 -6
7 8 12 17 20 21 17 4 -2 16 8 27 23 30 44 36 57 25 50 -6 -4 -13 -1 -16 7 -3
8 1 17 9 20 8 3 14 0 14 -6 0 -7 5 -6 15 2 11 9 13 16 5 24 -15 15 -12 30 4
17 12 -10 17 -8 25 7 6 11 7 23 3 27 -4 5 -2 5 5 1 15 -9 38 30 23 39 -8 5 -8
11 0 20 8 9 6 14 -6 19 -46 18 -66 1 -159 -131 -27 -39 -58 -73 -67 -76 -11
-3 -15 0 -11 9 3 8 1 14 -4 14 -6 0 -15 11 -21 25 -6 14 -17 25 -23 25 -8 0
-7 -5 2 -17 13 -15 12 -15 -9 -2 -23 15 -37 43 -34 69 1 8 -11 31 -28 50 -17
19 -29 30 -26 23 4 -6 2 -15 -4 -18 -6 -4 -10 -3 -9 2 6 32 -19 44 -50 24z
m389 -15 c0 -2 -8 -10 -17 -17 -16 -13 -17 -12 -4 4 13 16 21 21 21 13z m-363
-21 c0 -8 -4 -12 -9 -9 -5 3 -6 10 -3 15 9 13 12 11 12 -6z m61 -12 c-2 -10 3
-17 10 -15 6 1 12 -5 12 -13 0 -8 -7 -15 -16 -15 -8 0 -13 4 -9 9 3 5 1 12 -4
16 -6 3 -8 12 -4 20 7 21 15 19 11 -2z m-14 -69 c3 -8 2 -12 -4 -9 -6 3 -10
10 -10 16 0 14 7 11 14 -7z m41 -14 c3 -5 2 -10 -4 -10 -5 0 -13 5 -16 10 -3
6 -2 10 4 10 5 0 13 -4 16 -10z m152 -166 c-3 -3 -12 -4 -19 -1 -8 3 -5 6 6 6
11 1 17 -2 13 -5z m-67 -204 c0 -5 -2 -10 -4 -10 -3 0 -8 5 -11 10 -3 6 -1 10
4 10 6 0 11 -4 11 -10z"/>
<path d="M3643 4312 c-27 -23 -145 -260 -137 -274 4 -6 3 -8 -3 -5 -12 8 -96
-161 -87 -175 4 -6 3 -8 -3 -5 -12 7 -25 -31 -17 -45 3 -5 12 -4 20 3 12 10
13 9 9 -4 -8 -19 6 -28 34 -20 16 4 21 11 18 24 -3 12 2 20 14 24 10 4 19 11
19 17 0 6 -6 6 -15 -2 -9 -7 -15 -8 -15 -2 0 10 29 26 43 24 4 -1 6 1 5 5 0 5
2 16 6 26 7 15 25 17 151 17 136 0 144 -1 150 -20 4 -12 16 -30 28 -42 12 -11
17 -18 10 -14 -7 4 -6 -5 4 -24 10 -20 20 -29 30 -26 8 3 11 1 8 -4 -3 -6 1
-10 10 -10 10 0 15 7 13 18 -2 10 2 16 10 14 8 -1 11 2 6 9 -5 9 -2 10 9 6 11
-4 17 -1 17 8 0 11 -5 12 -26 5 -20 -8 -25 -7 -22 2 3 7 10 13 16 13 5 0 14 3
18 8 4 4 2 7 -5 7 -7 0 -9 5 -5 13 6 9 5 9 -7 0 -13 -11 -18 -9 -29 11 -7 13
-10 30 -7 38 3 8 6 5 6 -8 1 -11 7 -21 15 -21 11 0 5 20 -21 71 -20 39 -40 74
-45 77 -5 3 -9 9 -9 13 3 20 0 26 -11 20 -8 -5 -9 -2 -5 10 4 10 3 15 -3 11
-6 -3 -11 -3 -11 2 -1 4 -3 17 -4 28 -5 39 -52 123 -86 155 -19 18 -28 29 -20
25 9 -5 12 -4 7 3 -11 18 -60 14 -83 -6z m125 -72 c7 -11 11 -20 9 -20 -2 0
-12 9 -22 20 -10 11 -14 20 -9 20 5 0 15 -9 22 -20z m-62 -65 c4 -8 11 -12 17
-8 6 4 8 0 4 -11 -7 -17 -5 -22 27 -83 31 -60 26 -65 -66 -58 -45 3 -83 7 -86
9 -2 2 4 18 12 35 13 24 13 29 2 25 -7 -3 -16 2 -19 10 -4 11 -1 13 10 9 12
-5 14 -3 8 7 -6 10 -3 12 14 7 13 -3 21 -1 19 6 -3 15 31 67 43 67 6 0 12 -7
15 -15z m102 -20 c-3 -3 -9 2 -12 12 -6 14 -5 15 5 6 7 -7 10 -15 7 -18z m-20
-90 c13 -29 5 -33 -14 -7 -15 20 -18 32 -6 32 5 0 14 -11 20 -25z"/>
<path d="M4157 4318 c-16 -12 -17 -37 -15 -268 l3 -255 185 0 c171 0 185 1
182 18 -2 9 3 17 10 17 8 0 6 5 -4 11 -10 5 -18 15 -18 21 0 6 5 7 13 2 7 -5
4 -1 -6 9 -16 14 -39 17 -143 17 -92 0 -124 3 -125 13 0 6 -2 64 -4 127 -2 63
-5 124 -5 135 -1 11 2 35 5 53 4 23 3 32 -4 27 -8 -4 -8 1 -2 17 19 52 -28 88
-72 56z m70 -330 c-2 -13 -4 -3 -4 22 0 25 2 35 4 23 2 -13 2 -33 0 -45z"/>
<path d="M4662 4318 c-8 -8 -12 -63 -12 -182 l0 -171 30 -52 c17 -29 37 -53
45 -53 8 0 14 -4 13 -9 -2 -5 1 -9 5 -9 5 -1 15 -9 23 -19 7 -10 14 -14 14 -9
0 5 9 1 20 -9 10 -9 26 -15 34 -12 8 3 16 1 18 -5 5 -15 104 -12 153 4 28 9
40 19 39 31 -1 13 1 15 10 8 16 -14 59 16 52 35 -3 8 0 13 7 11 7 -1 11 4 9
11 -1 6 1 11 5 11 20 -3 27 2 14 10 -9 6 -11 15 -6 27 4 11 9 24 10 29 3 22
18 45 25 40 5 -3 9 62 9 145 1 103 -2 150 -9 150 -6 0 -9 4 -6 9 7 10 -16 21
-43 21 -42 0 -49 -27 -51 -193 -1 -145 -3 -162 -23 -193 -28 -43 -80 -69 -132
-65 -22 2 -53 4 -68 4 -16 0 -23 3 -17 7 14 8 -16 24 -40 21 -12 -1 -12 0 -1
7 10 7 10 11 1 17 -31 19 -42 78 -41 226 2 138 0 149 -18 158 -26 14 -54 14
-69 -1z"/>
<path d="M3010 4216 c0 -8 5 -18 10 -21 6 -3 10 1 10 9 0 8 -4 18 -10 21 -5 3
-10 -1 -10 -9z"/>
<path d="M5162 3970 c0 -14 2 -19 5 -12 2 6 2 18 0 25 -3 6 -5 1 -5 -13z"/>
<path d="M3131 3904 c0 -11 3 -14 6 -6 3 7 2 16 -1 19 -3 4 -6 -2 -5 -13z"/>
<path d="M1365 3318 c-31 -17 -225 -210 -241 -240 -8 -15 -14 -49 -14 -75 1
-129 134 -212 248 -154 20 10 83 66 139 124 80 82 103 112 109 141 16 87 -20
167 -89 200 -40 18 -122 21 -152 4z"/>
<path d="M6355 1846 c-100 -37 -149 -166 -97 -261 27 -51 104 -95 164 -95 49
1 112 33 144 75 37 49 45 142 16 195 -42 77 -144 116 -227 86z m136 -105 c40
-40 40 -89 0 -133 -24 -27 -36 -33 -71 -33 -35 0 -47 6 -71 33 -40 44 -40 93
0 133 23 23 38 29 71 29 33 0 48 -6 71 -29z"/>
<path d="M2353 1096 l-28 -24 -3 -329 c-2 -218 0 -341 8 -365 19 -66 33 -68
329 -65 258 2 260 2 285 26 14 13 26 33 28 45 3 18 6 15 21 -16 27 -53 54 -61
199 -54 67 3 137 5 153 4 17 0 85 -1 153 -1 67 0 134 0 150 0 154 -1 1782 0
1797 0 11 1 108 -1 216 -3 226 -6 263 0 308 51 48 55 53 91 49 373 -3 237 -5
260 -24 297 -13 26 -36 47 -65 63 -43 23 -50 23 -255 20 -160 -2 -215 -6 -227
-17 -14 -11 -23 -11 -57 3 -36 14 -103 16 -540 16 l-500 -1 -27 -23 -28 -24
-3 -206 -3 -206 -25 0 -24 0 0 185 c0 276 -2 279 -210 271 -69 -3 -136 -5
-150 -5 -14 1 -357 3 -762 5 l-738 3 -27 -23z m257 -182 l0 -115 38 3 37 3 3
113 3 112 94 0 95 0 0 -315 0 -315 -95 0 -94 0 -3 123 -3 122 -35 0 -35 0 -3
-123 -3 -123 -94 3 -95 3 -1 305 c0 168 0 308 0 313 1 4 44 7 96 7 l95 0 0
-116z m514 99 c3 -10 13 -58 22 -108 9 -49 20 -96 24 -104 9 -18 13 -7 35 109
9 47 19 93 21 103 5 15 18 17 100 17 l94 0 0 -47 c0 -37 -18 -92 -75 -232 -73
-178 -75 -186 -75 -267 l0 -84 -95 0 -95 0 0 83 c0 80 -2 89 -80 282 -74 185
-90 241 -73 258 3 4 48 7 99 7 80 0 93 -2 98 -17z m690 -10 c21 -101 86 -544
84 -568 l-3 -30 -95 0 -95 0 -9 63 -10 63 -40 -3 c-40 -3 -41 -4 -44 -43 -6
-89 -1 -85 -107 -85 l-95 0 0 54 c0 30 9 108 19 173 11 65 30 182 42 261 l23
142 162 0 162 0 6 -27z m328 -205 l3 -233 98 -3 98 -3 -3 -77 -3 -77 -192 -3
-193 -2 0 315 0 315 95 0 95 0 2 -232z m438 -3 l0 -235 40 0 40 0 0 235 0 235
95 0 95 0 0 -316 0 -315 -210 3 c-203 3 -210 4 -232 26 -23 22 -23 26 -26 312
l-3 290 101 0 100 0 0 -235z m785 210 c24 -23 25 -28 25 -175 0 -148 -1 -151
-25 -176 l-25 -25 30 -72 c18 -42 30 -89 30 -115 l0 -43 -97 3 -97 3 -25 95
c-19 68 -31 96 -43 98 -15 3 -18 -9 -20 -95 l-3 -98 -97 -3 -98 -3 0 316 0
315 210 0 c211 0 211 0 235 -25z m529 4 l26 -20 0 -269 c0 -249 -1 -269 -19
-291 -19 -24 -22 -24 -211 -24 l-192 0 -24 29 -25 28 3 265 c3 265 3 265 27
284 21 17 41 19 206 19 169 0 184 -1 209 -21z"/>
<path d="M3636 838 c-3 -18 -7 -59 -11 -90 -5 -57 -5 -58 21 -58 l27 0 -6 68
c-4 37 -7 77 -7 90 0 34 -18 26 -24 -10z"/>
<path d="M5120 815 l0 -55 35 0 35 0 0 55 0 55 -35 0 -35 0 0 -55z"/>
<path d="M5650 714 l0 -155 38 3 37 3 3 153 3 152 -41 0 -40 0 0 -156z"/>
<path d="M8077 472 l-67 -68 68 -67 c64 -63 69 -66 85 -50 16 16 14 20 -30 65
l-47 48 49 50 c49 50 49 50 29 70 -20 20 -20 20 -87 -48z"/>
<path d="M110 515 c-11 -14 -6 -23 33 -63 l47 -48 -45 -44 c-48 -47 -53 -61
-31 -79 11 -9 28 1 82 53 l69 65 -65 65 c-35 37 -67 66 -71 66 -4 0 -12 -7
-19 -15z"/>
<path d="M283 523 c-22 -8 -14 -28 27 -68 22 -21 40 -44 40 -50 0 -6 -20 -31
-45 -55 -42 -41 -44 -45 -28 -62 16 -18 20 -16 85 49 l68 67 -62 63 c-34 35
-65 63 -68 62 -3 0 -11 -3 -17 -6z"/>
<path d="M440 515 c-11 -14 -6 -23 35 -65 l49 -50 -47 -48 c-46 -46 -47 -49
-29 -65 17 -16 22 -13 85 51 l67 68 -63 62 c-66 66 -77 71 -97 47z"/>
<path d="M610 515 c-11 -14 -6 -23 33 -63 l47 -47 -47 -47 c-46 -47 -47 -47
-28 -68 l19 -21 63 63 c35 34 63 66 63 70 0 10 -122 128 -131 128 -4 0 -12 -7
-19 -15z"/>
<path d="M7740 465 l-64 -65 64 -65 64 -65 21 20 20 20 -48 47 -47 48 47 47
c39 40 44 49 33 63 -7 8 -15 15 -19 15 -4 0 -36 -29 -71 -65z"/>
<path d="M7907 472 c-31 -32 -57 -62 -57 -68 0 -5 28 -38 63 -72 61 -61 64
-62 80 -44 17 18 15 21 -27 68 l-45 49 46 47 c39 40 44 49 33 63 -20 24 -32
19 -93 -43z"/>
<path d="M8242 467 l-62 -63 68 -67 c65 -65 69 -67 85 -49 16 17 14 21 -28 62
-25 24 -45 49 -45 54 0 6 19 29 42 53 35 36 39 44 28 58 -7 8 -15 15 -19 15
-4 0 -35 -28 -69 -63z"/>
</g>
</svg>
